{"control": {"disp_time": [8, 27], "time_per_bar": 8, "time_cursor": 19, "disp_key": [[64, 81], [56, 73]], "program": [6, 1, 2, 3, 4, 5, 6, 7, 8, 9, 10, 11, 12, 13, 14, 15], "tempo": 90, "mini_note": 4, "key_cursor": [80, 64], "gmbank": [0, 0, 0, 0, 0, 0, 0, 0, 0, 0, 0, 0, 0, 0, 0, 0]}, "score": [{"max_duration": 4, "time": 0, "notes": [{"duration": 4, "note": 57, "velocity": 127, "channel": 1}, {"duration": 4, "note": 60, "velocity": 127, "channel": 1}, {"duration": 4, "note": 64, "velocity": 127, "channel": 1}]}, {"max_duration": 4, "time": 4, "notes": [{"duration": 4, "note": 57, "velocity": 127, "channel": 1}, {"duration": 4, "note": 60, "velocity": 127, "channel": 1}, {"duration": 4, "note": 64, "velocity": 127, "channel": 1}]}, {"max_duration": 4, "time": 8, "notes": [{"duration": 4, "note": 57, "velocity": 127, "channel": 1}, {"duration": 4, "note": 60, "velocity": 127, "channel": 1}, {"duration": 4, "note": 64, "velocity": 127, "channel": 1}]}, {"max_duration": 4, "time": 12, "notes": [{"duration": 4, "note": 57, "velocity": 127, "channel": 1}, {"duration": 4, "note": 60, "velocity": 127, "channel": 1}, {"duration": 4, "note": 64, "velocity": 127, "channel": 1}]}, {"max_duration": 4, "time": 16, "notes": [{"duration": 4, "note": 57, "velocity": 127, "channel": 1}, {"duration": 4, "note": 60, "velocity": 127, "channel": 1}, {"duration": 4, "note": 64, "velocity": 127, "channel": 1}, {"duration": 1, "note": 69, "velocity": 127, "channel": 0}]}, {"max_duration": 1, "time": 17, "notes": [{"duration": 1, "note": 71, "velocity": 127, "channel": 0}]}, {"max_duration": 1, "time": 18, "notes": [{"duration": 1, "note": 72, "velocity": 127, "channel": 0}]}, {"max_duration": 1, "time": 19, "notes": [{"duration": 1, "note": 71, "velocity": 127, "channel": 0}]}, {"max_duration": 4, "time": 20, "notes": [{"duration": 4, "note": 57, "velocity": 127, "channel": 1}, {"duration": 4, "note": 60, "velocity": 127, "channel": 1}, {"duration": 4, "note": 64, "velocity": 127, "channel": 1}, {"duration": 2, "note": 69, "velocity": 127, "channel": 0}]}, {"max_duration": 4, "time": 24, "notes": [{"velocity": 127, "note": 57, "channel": 1, "duration": 4}, {"velocity": 127, "note": 60, "channel": 1, "duration": 4}, {"velocity": 127, "note": 64, "channel": 1, "duration": 4}, {"velocity": 127, "note": 69, "channel": 0, "duration": 1}]}, {"max_duration": 1, "time": 25, "notes": [{"velocity": 127, "note": 71, "channel": 0, "duration": 1}]}, {"max_duration": 1, "time": 26, "notes": [{"velocity": 127, "note": 72, "channel": 0, "duration": 1}]}, {"max_duration": 1, "time": 27, "notes": [{"velocity": 127, "note": 74, "channel": 0, "duration": 1}]}, {"max_duration": 4, "time": 28, "notes": [{"velocity": 127, "note": 57, "channel": 1, "duration": 4}, {"velocity": 127, "note": 60, "channel": 1, "duration": 4}, {"velocity": 127, "note": 64, "channel": 1, "duration": 4}, {"velocity": 127, "note": 76, "channel": 0, "duration": 2}]}, {"max_duration": 4, "time": 32, "notes": [{"velocity": 127, "note": 57, "channel": 1, "duration": 4}, {"velocity": 127, "note": 62, "channel": 1, "duration": 4}, {"velocity": 127, "note": 65, "channel": 1, "duration": 4}, {"velocity": 127, "note": 74, "channel": 0, "duration": 1}]}, {"max_duration": 1, "time": 33, "notes": [{"velocity": 127, "note": 76, "channel": 0, "duration": 1}]}, {"max_duration": 1, "time": 34, "notes": [{"velocity": 127, "note": 77, "channel": 0, "duration": 1}]}, {"max_duration": 1, "time": 35, "notes": [{"velocity": 127, "note": 79, "channel": 0, "duration": 1}]}, {"max_duration": 4, "time": 36, "notes": [{"velocity": 127, "note": 57, "channel": 1, "duration": 4}, {"velocity": 127, "note": 62, "channel": 1, "duration": 4}, {"velocity": 127, "note": 65, "channel": 1, "duration": 4}, {"velocity": 127, "note": 81, "channel": 0, "duration": 2}]}, {"max_duration": 4, "time": 40, "notes": [{"velocity": 127, "note": 57, "channel": 1, "duration": 4}, {"velocity": 127, "note": 60, "channel": 1, "duration": 4}, {"velocity": 127, "note": 64, "channel": 1, "duration": 4}, {"velocity": 127, "note": 81, "channel": 0, "duration": 1}]}, {"max_duration": 1, "time": 41, "notes": [{"velocity": 127, "note": 83, "channel": 0, "duration": 1}]}, {"max_duration": 1, "time": 42, "notes": [{"velocity": 127, "note": 84, "channel": 0, "duration": 1}]}, {"max_duration": 1, "time": 43, "notes": [{"velocity": 127, "note": 86, "channel": 0, "duration": 1}]}, {"max_duration": 4, "time": 44, "notes": [{"velocity": 127, "note": 57, "channel": 1, "duration": 4}, {"velocity": 127, "note": 60, "channel": 1, "duration": 4}, {"velocity": 127, "note": 64, "channel": 1, "duration": 4}, {"velocity": 127, "note": 88, "channel": 0, "duration": 2}]}, {"max_duration": 4, "time": 48, "notes": [{"velocity": 127, "note": 55, "channel": 1, "duration": 4}, {"velocity": 127, "note": 60, "channel": 1, "duration": 4}, {"velocity": 127, "note": 64, "channel": 1, "duration": 4}]}, {"max_duration": 2, "time": 50, "notes": [{"velocity": 127, "note": 76, "channel": 0, "duration": 2}]}, {"max_duration": 4, "time": 52, "notes": [{"velocity": 127, "note": 55, "channel": 1, "duration": 4}, {"velocity": 127, "note": 60, "channel": 1, "duration": 4}, {"velocity": 127, "note": 64, "channel": 1, "duration": 4}, {"velocity": 127, "note": 76, "channel": 0, "duration": 2}]}, {"max_duration": 2, "time": 54, "notes": [{"velocity": 127, "note": 77, "channel": 0, "duration": 2}]}, {"max_duration": 4, "time": 56, "notes": [{"velocity": 127, "note": 55, "channel": 1, "duration": 4}, {"velocity": 127, "note": 59, "channel": 1, "duration": 4}, {"velocity": 127, "note": 65, "channel": 1, "duration": 4}, {"velocity": 127, "note": 72, "channel": 0, "duration": 2}]}, {"max_duration": 4, "time": 60, "notes": [{"velocity": 127, "note": 55, "channel": 1, "duration": 4}, {"velocity": 127, "note": 59, "channel": 1, "duration": 4}, {"velocity": 127, "note": 65, "channel": 1, "duration": 4}, {"velocity": 127, "note": 74, "channel": 0, "duration": 4}]}, {"max_duration": 4, "time": 64, "notes": [{"velocity": 127, "note": 55, "channel": 1, "duration": 4}, {"velocity": 127, "note": 59, "channel": 1, "duration": 4}, {"velocity": 127, "note": 65, "channel": 1, "duration": 4}, {"velocity": 127, "note": 74, "channel": 0, "duration": 2}]}, {"max_duration": 2, "time": 66, "notes": [{"velocity": 127, "note": 79, "channel": 0, "duration": 2}]}, {"max_duration": 4, "time": 68, "notes": [{"velocity": 127, "note": 55, "channel": 1, "duration": 4}, {"velocity": 127, "note": 59, "channel": 1, "duration": 4}, {"velocity": 127, "note": 65, "channel": 1, "duration": 4}, {"velocity": 127, "note": 74, "channel": 0, "duration": 2}]}, {"max_duration": 2, "time": 70, "notes": [{"velocity": 127, "note": 76, "channel": 0, "duration": 2}]}, {"max_duration": 2, "time": 72, "notes": [{"velocity": 127, "note": 60, "channel": 1, "duration": 2}, {"velocity": 127, "note": 64, "channel": 1, "duration": 2}, {"velocity": 127, "note": 72, "channel": 0, "duration": 2}]}, {"max_duration": 4, "time": 76, "notes": [{"velocity": 127, "note": 64, "channel": 1, "duration": 4}, {"velocity": 127, "note": 76, "channel": 0, "duration": 4}]}], "sign": []}