{"sign": [], "score": [{"max_duration": 1, "time": 6, "notes": [{"velocity": 127, "note": 72, "channel": 0, "duration": 1}]}, {"max_duration": 1, "time": 7, "notes": [{"velocity": 127, "note": 74, "channel": 0, "duration": 1}]}, {"max_duration": 3, "time": 8, "notes": [{"duration": 3, "note": 60, "channel": 1, "velocity": 127}, {"velocity": 127, "note": 76, "channel": 0, "duration": 2}]}, {"max_duration": 2, "time": 10, "notes": [{"velocity": 127, "note": 76, "channel": 0, "duration": 2}]}, {"max_duration": 1, "time": 11, "notes": [{"duration": 1, "note": 60, "channel": 1, "velocity": 127}]}, {"max_duration": 3, "time": 12, "notes": [{"duration": 3, "note": 55, "channel": 1, "velocity": 127}, {"velocity": 127, "note": 74, "channel": 0, "duration": 1}]}, {"max_duration": 1, "time": 13, "notes": [{"velocity": 127, "note": 72, "channel": 0, "duration": 1}]}, {"max_duration": 2, "time": 14, "notes": [{"velocity": 127, "note": 71, "channel": 0, "duration": 2}]}, {"max_duration": 1, "time": 15, "notes": [{"duration": 1, "note": 55, "channel": 1, "velocity": 127}]}, {"max_duration": 3, "time": 16, "notes": [{"duration": 3, "note": 57, "channel": 1, "velocity": 127}, {"velocity": 127, "note": 72, "channel": 0, "duration": 3}]}, {"max_duration": 5, "time": 19, "notes": [{"duration": 5, "note": 57, "channel": 1, "velocity": 127}, {"velocity": 127, "note": 71, "channel": 0, "duration": 1}]}, {"max_duration": 2, "time": 20, "notes": [{"velocity": 127, "note": 69, "channel": 0, "duration": 2}]}, {"max_duration": 1, "time": 22, "notes": [{"velocity": 127, "note": 72, "channel": 0, "duration": 1}]}, {"max_duration": 1, "time": 23, "notes": [{"velocity": 127, "note": 74, "channel": 0, "duration": 1}]}, {"max_duration": 3, "time": 24, "notes": [{"duration": 3, "note": 60, "channel": 1, "velocity": 127}, {"velocity": 127, "note": 76, "channel": 0, "duration": 2}]}, {"max_duration": 2, "time": 26, "notes": [{"velocity": 127, "note": 76, "channel": 0, "duration": 2}]}, {"max_duration": 1, "time": 27, "notes": [{"duration": 1, "note": 60, "channel": 1, "velocity": 127}]}, {"max_duration": 3, "time": 28, "notes": [{"duration": 3, "note": 55, "channel": 1, "velocity": 127}, {"velocity": 127, "note": 74, "channel": 0, "duration": 1}]}, {"max_duration": 1, "time": 29, "notes": [{"velocity": 127, "note": 76, "channel": 0, "duration": 1}]}, {"max_duration": 2, "time": 30, "notes": [{"velocity": 127, "note": 77, "channel": 0, "duration": 2}]}, {"max_duration": 1, "time": 31, "notes": [{"duration": 1, "note": 55, "channel": 1, "velocity": 127}]}, {"max_duration": 3, "time": 32, "notes": [{"duration": 3, "note": 57, "channel": 1, "velocity": 127}, {"velocity": 127, "note": 76, "channel": 0, "duration": 3}]}, {"max_duration": 5, "time": 35, "notes": [{"duration": 5, "note": 57, "channel": 1, "velocity": 127}, {"velocity": 127, "note": 81, "channel": 0, "duration": 3}]}, {"max_duration": 1, "time": 38, "notes": [{"velocity": 127, "note": 72, "channel": 0, "duration": 1}]}, {"max_duration": 1, "time": 39, "notes": [{"velocity": 127, "note": 74, "channel": 0, "duration": 1}]}, {"max_duration": 3, "time": 40, "notes": [{"duration": 3, "note": 60, "channel": 1, "velocity": 127}, {"velocity": 127, "note": 76, "channel": 0, "duration": 2}]}, {"max_duration": 2, "time": 42, "notes": [{"velocity": 127, "note": 76, "channel": 0, "duration": 2}]}, {"max_duration": 1, "time": 43, "notes": [{"duration": 1, "note": 60, "channel": 1, "velocity": 127}]}, {"max_duration": 3, "time": 44, "notes": [{"duration": 3, "note": 55, "channel": 1, "velocity": 127}, {"velocity": 127, "note": 74, "channel": 0, "duration": 1}]}, {"max_duration": 1, "time": 45, "notes": [{"velocity": 127, "note": 72, "channel": 0, "duration": 1}]}, {"max_duration": 2, "time": 46, "notes": [{"velocity": 127, "note": 71, "channel": 0, "duration": 2}]}, {"max_duration": 1, "time": 47, "notes": [{"duration": 1, "note": 55, "channel": 1, "velocity": 127}]}, {"max_duration": 3, "time": 48, "notes": [{"duration": 3, "note": 57, "channel": 1, "velocity": 127}, {"velocity": 127, "note": 72, "channel": 0, "duration": 3}]}, {"max_duration": 5, "time": 51, "notes": [{"duration": 5, "note": 57, "channel": 1, "velocity": 127}, {"velocity": 127, "note": 71, "channel": 0, "duration": 1}]}, {"max_duration": 2, "time": 52, "notes": [{"velocity": 127, "note": 69, "channel": 0, "duration": 2}]}, {"max_duration": 1, "time": 54, "notes": [{"velocity": 127, "note": 71, "channel": 0, "duration": 1}]}, {"max_duration": 1, "time": 55, "notes": [{"velocity": 127, "note": 72, "channel": 0, "duration": 1}]}, {"max_duration": 8, "time": 56, "notes": [{"duration": 2, "note": 53, "channel": 1, "velocity": 127}, {"velocity": 127, "note": 79, "channel": 0, "duration": 8}]}, {"max_duration": 4, "time": 58, "notes": [{"duration": 4, "note": 57, "channel": 1, "velocity": 127}, {"duration": 4, "note": 60, "channel": 1, "velocity": 127}]}, {"max_duration": 2, "time": 62, "notes": [{"duration": 2, "note": 57, "channel": 1, "velocity": 127}, {"duration": 2, "note": 60, "channel": 1, "velocity": 127}]}, {"max_duration": 1, "time": 65, "notes": [{"duration": 1, "note": 53, "channel": 1, "velocity": 127}, {"duration": 1, "note": 57, "channel": 1, "velocity": 127}, {"duration": 1, "note": 60, "channel": 1, "velocity": 127}, {"duration": 1, "note": 64, "channel": 0, "velocity": 127}]}, {"max_duration": 2, "time": 66, "notes": [{"duration": 2, "note": 53, "channel": 1, "velocity": 127}, {"duration": 2, "note": 57, "channel": 1, "velocity": 127}, {"duration": 2, "note": 60, "channel": 1, "velocity": 127}, {"duration": 1, "note": 65, "channel": 0, "velocity": 127}]}, {"max_duration": 1, "time": 67, "notes": [{"duration": 1, "note": 67, "channel": 0, "velocity": 127}]}, {"max_duration": 2, "time": 68, "notes": [{"duration": 2, "note": 53, "channel": 1, "velocity": 127}, {"duration": 2, "note": 57, "channel": 1, "velocity": 127}, {"duration": 2, "note": 60, "channel": 1, "velocity": 127}, {"duration": 1, "note": 72, "channel": 0, "velocity": 127}]}, {"max_duration": 1, "time": 69, "notes": [{"duration": 1, "note": 67, "channel": 0, "velocity": 127}]}, {"max_duration": 2, "time": 70, "notes": [{"duration": 2, "note": 55, "channel": 1, "velocity": 127}, {"duration": 2, "note": 59, "channel": 1, "velocity": 127}, {"duration": 2, "note": 62, "channel": 1, "velocity": 127}, {"duration": 1, "note": 65, "channel": 0, "velocity": 127}]}, {"max_duration": 1, "time": 71, "notes": [{"duration": 1, "note": 64, "channel": 0, "velocity": 127}]}, {"max_duration": 3, "time": 72, "notes": [{"duration": 3, "note": 60, "channel": 1, "velocity": 127}]}, {"max_duration": 5, "time": 75, "notes": [{"duration": 5, "note": 60, "channel": 1, "velocity": 127}, {"duration": 1, "note": 74, "channel": 0, "velocity": 127}]}, {"max_duration": 1, "time": 76, "notes": [{"duration": 1, "note": 74, "channel": 0, "velocity": 127}]}, {"max_duration": 1, "time": 77, "notes": [{"duration": 1, "note": 67, "channel": 0, "velocity": 127}]}, {"max_duration": 1, "time": 78, "notes": [{"duration": 1, "note": 76, "channel": 0, "velocity": 127}]}, {"max_duration": 1, "time": 79, "notes": [{"duration": 1, "note": 77, "channel": 0, "velocity": 127}]}, {"max_duration": 3, "time": 80, "notes": [{"duration": 3, "note": 62, "channel": 1, "velocity": 127}, {"duration": 1, "note": 76, "channel": 0, "velocity": 127}]}, {"max_duration": 2, "time": 81, "notes": [{"duration": 2, "note": 74, "channel": 0, "velocity": 127}]}, {"max_duration": 5, "time": 83, "notes": [{"duration": 1, "note": 62, "channel": 1, "velocity": 127}, {"duration": 5, "note": 77, "channel": 0, "velocity": 127}]}, {"max_duration": 4, "time": 84, "notes": [{"duration": 4, "note": 62, "channel": 1, "velocity": 127}]}, {"max_duration": 3, "time": 88, "notes": [{"duration": 3, "note": 55, "channel": 1, "velocity": 127}]}, {"max_duration": 5, "time": 91, "notes": [{"duration": 5, "note": 55, "channel": 1, "velocity": 127}, {"duration": 1, "note": 74, "channel": 0, "velocity": 127}]}, {"max_duration": 1, "time": 92, "notes": [{"duration": 1, "note": 74, "channel": 0, "velocity": 127}]}, {"max_duration": 1, "time": 93, "notes": [{"duration": 1, "note": 67, "channel": 0, "velocity": 127}]}, {"max_duration": 1, "time": 94, "notes": [{"duration": 1, "note": 74, "channel": 0, "velocity": 127}]}, {"max_duration": 1, "time": 95, "notes": [{"duration": 1, "note": 76, "channel": 0, "velocity": 127}]}, {"max_duration": 3, "time": 96, "notes": [{"duration": 3, "note": 57, "channel": 1, "velocity": 127}, {"duration": 1, "note": 74, "channel": 0, "velocity": 127}]}, {"max_duration": 2, "time": 97, "notes": [{"duration": 2, "note": 72, "channel": 0, "velocity": 127}]}, {"max_duration": 5, "time": 99, "notes": [{"duration": 5, "note": 57, "channel": 1, "velocity": 127}, {"duration": 5, "note": 76, "channel": 0, "velocity": 127}]}, {"max_duration": 3, "time": 104, "notes": [{"duration": 3, "note": 53, "channel": 1, "velocity": 127}]}, {"max_duration": 1, "time": 106, "notes": [{"duration": 1, "note": 77, "channel": 0, "velocity": 127}]}, {"max_duration": 5, "time": 107, "notes": [{"duration": 5, "note": 53, "channel": 1, "velocity": 127}, {"duration": 1, "note": 76, "channel": 0, "velocity": 127}]}, {"max_duration": 1, "time": 108, "notes": [{"duration": 1, "note": 74, "channel": 0, "velocity": 127}]}, {"max_duration": 2, "time": 109, "notes": [{"duration": 2, "note": 72, "channel": 0, "velocity": 127}]}, {"max_duration": 2, "time": 111, "notes": [{"duration": 2, "note": 74, "channel": 0, "velocity": 127}]}, {"max_duration": 3, "time": 112, "notes": [{"duration": 3, "note": 60, "channel": 1, "velocity": 127}]}, {"max_duration": 2, "time": 113, "notes": [{"duration": 2, "note": 76, "channel": 0, "velocity": 127}]}, {"max_duration": 5, "time": 115, "notes": [{"duration": 5, "note": 60, "channel": 1, "velocity": 127}, {"duration": 3, "note": 72, "channel": 0, "velocity": 127}]}, {"max_duration": 1, "time": 118, "notes": [{"duration": 1, "note": 71, "channel": 0, "velocity": 127}]}, {"max_duration": 1, "time": 119, "notes": [{"duration": 1, "note": 72, "channel": 0, "velocity": 127}]}, {"max_duration": 4, "time": 120, "notes": [{"duration": 3, "note": 62, "channel": 1, "velocity": 127}, {"duration": 4, "note": 74, "channel": 0, "velocity": 127}]}, {"max_duration": 5, "time": 123, "notes": [{"duration": 5, "note": 62, "channel": 1, "velocity": 127}]}, {"max_duration": 4, "time": 124, "notes": [{"duration": 4, "note": 69, "channel": 0, "velocity": 127}]}, {"max_duration": 8, "time": 128, "notes": [{"duration": 3, "note": 55, "channel": 1, "velocity": 127}, {"duration": 8, "note": 71, "channel": 0, "velocity": 127}]}, {"max_duration": 5, "time": 131, "notes": [{"duration": 5, "note": 55, "channel": 1, "velocity": 127}]}], "channel": [{"program": 0, "gmbank": 0, "volume": 100}, {"program": 1, "gmbank": 0, "volume": 70}, {"program": 2, "gmbank": 0, "volume": 100}, {"program": 3, "gmbank": 0, "volume": 100}, {"program": 4, "gmbank": 0, "volume": 100}, {"program": 5, "gmbank": 0, "volume": 100}, {"program": 6, "gmbank": 0, "volume": 100}, {"program": 7, "gmbank": 0, "volume": 100}, {"program": 8, "gmbank": 0, "volume": 100}, {"program": 9, "gmbank": 0, "volume": 100}, {"program": 10, "gmbank": 0, "volume": 100}, {"program": 11, "gmbank": 0, "volume": 100}, {"program": 12, "gmbank": 0, "volume": 100}, {"program": 13, "gmbank": 0, "volume": 100}, {"program": 14, "gmbank": 0, "volume": 100}, {"program": 15, "gmbank": 0, "volume": 100}], "control": {"disp_time": [64, 91], "time_per_bar": 8, "time_cursor": 76, "disp_key": [[64, 81], [49, 66]], "program": [5, 2, 2, 3, 4, 5, 6, 7, 8, 9, 10, 11, 12, 13, 14, 15], "tempo": 120, "mini_note": 3, "key_cursor": [75, 55], "gmbank": [0, 0, 0, 0, 0, 0, 0, 0, 0, 0, 0, 0, 0, 0, 0, 0]}}